<svg xmlns="http://www.w3.org/2000/svg" viewBox="0 0 1274.69 399.75"><defs><style>.cls-1,.cls-3{fill:#3fa9f5;}.cls-2{fill:#29abe2;}.cls-3{font-size:175px;}.cls-3,.cls-4,.cls-5{font-family:Verdana-Bold, Verdana;font-weight:700;}.cls-4{font-size:105px;}.cls-4,.cls-5{fill:#666;}.cls-5{font-size:30.84px;}.cls-6{fill:none;stroke:#3fa9f5;stroke-miterlimit:10;stroke-width:14px;}</style></defs><g id="Layer_2" data-name="Layer 2"><g id="Layer_1-2" data-name="Layer 1"><path class="cls-1" d="M413.14,233.45c.43,9.42,1.24,16.16-2.85,21.35-28.55,36.2-54.21,75.5-94.68,100-25.12,15.19-52,27.47-78,41.23-8.91,4.72-17.57,4.55-27.17,1.8-33.75-9.66-67.58-19.05-101.59-27.72-12.13-3.09-22.07-8.41-29.72-18.23-15-19.27-34.69-34.2-49.31-54-8.1-11-13.55-22.21-15.33-35.67Q8.08,213.68,1,165.26c-.92-6.34-2.29-12.77,2-18.1C32.72,110.33,57.38,68.54,100.26,44.3,124.79,30.43,150,17.66,174.61,4A29,29,0,0,1,198,1.31c38.63,10.8,77.36,21.24,116,31.81,17.34,4.74,23.89,21.39,35.28,32.6,7.08,7,13.45,14.65,20.74,21.6,15.93,15.22,28.87,31.81,30.78,56C403.29,174.54,409.17,205.48,413.14,233.45ZM133.65,272.69C174.09,269,212.05,265.38,250,262c7.3-.65,11.44-4.3,13.15-11.17q13.2-52.87,26.42-105.74c2-7.78-.27-13.07-7.41-17.15q-46.35-26.53-92.39-53.63c-9.75-5.74-18.66-6.68-27.09,2.09C139.12,101,109.87,118.54,84,140.3c-12.14,10.2-13.18,19-7.15,32.23,8.6,18.78,15.39,38.38,24.08,57.11,3.61,7.79,1.75,21.69,17.44,19.55,2.62-.36,3.86,3.41,2.65,5.85C112.14,273,125.75,271.46,133.65,272.69ZM401,226.2c-2.16-14.7-5.38-35.78-8.35-56.88-7.72-54.72-4.76-42.12-52.11-37.79-32.64,3-38.14,9.17-46.2,41.51-6.07,24.35-12.23,48.68-18.17,73.06-5.28,21.64,1.38,33.65,22.67,40.85,2.24.76,6.24-.08,5.63,3.1-2.89,15.19,12.67,18.51,17.92,28.51,5.44,10.38,13,10,20.16.18,9.59-13.16,21.27-24.55,32-36.69C386.94,268,404,255.25,401,226.2ZM104.06,339.27c-3.37,17.2,5.13,19,13.18,21.18,27.23,7.44,54.23,15.94,81.8,21.7,8.7,1.82,23.17,18.83,28.79-4.88.45-1.89,3.12-1.3,4.26.56,6.47,10.54,13.29,2.86,19.06-.28,19.8-10.8,38.5-23.64,59.47-32.29,10.32-4.26,11.72-10.36,3.87-18.4-15.23-15.62-32.53-29.21-45.26-47.3-3.4-4.85-9.47-5.78-15.33-5.75-42.25.18-83.7,8.5-125.55,12.69-5.81.58-9.95,5.93-11.73,11.33C111.51,313.31,107.12,329,104.06,339.27ZM312.84,123.8c19.73-2.68,36.52-4.77,53.24-7.31,8.57-1.31,11-4.44,3.74-11.93-12.61-13.06-24.16-27.13-36.51-40.45-7.18-7.75-13.51-16.87-24.44-20-33.2-9.34-66.51-18.28-99.62-27.92-11.79-3.43-17.91,0-19.95,12-.94,5.53-1.78,11.51-4.5,16.22-5.26,9.11-1.48,13.52,6.25,17.87,30,16.92,59.44,35.08,90.1,50.76C291.43,118.37,302.45,126.19,312.84,123.8ZM38.07,157.16c-25.83,0-26.85,1.19-23.56,24.55,2.71,19.25,4.84,38.6,8.08,57.76,2.89,17.14,2.35,35.58,14.88,49.74C52,305.62,66.86,321.7,81.69,337.83c3.11,3.38,8.53,7,10.15.52,6.07-24.31,22.43-47.14,11-74.23C90.94,235.79,79,207.46,68.2,178.67,62.29,162.83,53.26,154.43,38.07,157.16Zm3.21-11.92c17.43,3.78,28.3-7.53,40.14-16.83,17-13.34,31.16-29.54,50.06-41.3,20-12.47,42-26.92,41.85-56,0-3,.95-7-.56-8.85-3.12-3.85-6.64-.15-9.88,1.32C110.65,47.06,65.56,79.61,32.65,127.37c-3.37,4.89-11.87,8.79-8.61,15.24C27.12,148.7,35.51,144.49,41.28,145.24Z"/><path class="cls-2" d="M126.73,181.83c.56-12.52,0-25.22,1.93-37.52,3.55-22.44,16-32.16,38.18-29,12.58,1.8,24.56,3,37-.23,13.81-3.62,25,7.21,38.08,8,2.72.16,3.89,1.68,3.93,4.93.3,25.74.87,51.48,1.44,77.21.25,11.24-1.85,20.06-16.05,19.89-13.53-.16-14.59-9-14.59-19.17,0-16.31.07-32.64-.29-48.95-.12-5.49-.27-12.83-8.06-12.32-6.41.42-5.91,7.23-6,12.08q-.39,25.41-.21,50.83c.08,11.15-3.55,18-16.26,17.59-12-.35-14.44-7.5-14.39-17.45.09-15.06.18-30.13-.24-45.18-.18-6.58,1.07-17.14-7.13-17.08-10.81.08-6.55,11.36-6.89,17.93-.74,14.39-.45,28.85-.29,43.29.15,13.57-6.25,19.19-19.75,18.54-14.62-.71-10.58-10.44-10.25-18.91.32-8.14.07-16.31.07-24.47Z"/><text class="cls-3" transform="translate(414.58 196.35)">Myneral</text><text class="cls-4" transform="translate(420.58 316.35)">Labs</text><text class="cls-5" transform="translate(695.58 316.83)">LTD.</text><line class="cls-6" x1="420.69" y1="225.32" x2="1274.69" y2="225.32"/></g></g></svg>